<svg width="180" height="180" viewBox="0 0 180 180" fill="none" xmlns="http://www.w3.org/2000/svg">
<g clip-path="url(#clip0_1_5)">
<circle cx="90" cy="90" r="90" fill="url(#paint0_linear_1_5)"/>
<path d="M43.5375 140.625L62.775 38.025L64.6312 29.25H100.744L79.4812 140.625H43.5375ZM147.994 130.669C144.956 139.556 137.587 144 125.887 144C117.225 144 109.912 138.825 103.95 128.475C97.875 118.125 94.275 104.513 93.15 87.6375C105.525 65.025 115.987 49.05 124.537 39.7125C132.75 30.825 141.131 26.3812 149.681 26.3812C154.294 26.3812 158.231 27.6187 161.494 30.0937C164.869 32.5687 166.95 35.775 167.737 39.7125C163.912 41.2875 161.1 42.6937 159.3 43.9312C154.8 47.3062 149.512 52.7625 143.437 60.3L128.081 78.6937C125.606 81.6187 123.862 83.7562 122.85 85.1062C124.537 94.5562 127.912 103.95 132.975 113.287C137.812 122.175 142.819 127.969 147.994 130.669Z" fill="white"/>
</g>
<defs>
<linearGradient id="paint0_linear_1_5" x1="180" y1="0" x2="0" y2="180" gradientUnits="userSpaceOnUse">
<stop stop-color="#00C4FF"/>
<stop offset="1" stop-color="#F800F8"/>
</linearGradient>
<clipPath id="clip0_1_5">
<rect width="180" height="180" fill="white"/>
</clipPath>
</defs>
</svg>
